<?xml version="1.0" standalone="no"?>
<!DOCTYPE svg PUBLIC "-//W3C//DTD SVG 20010904//EN"
 "http://www.w3.org/TR/2001/REC-SVG-20010904/DTD/svg10.dtd">
<svg version="1.0" xmlns="http://www.w3.org/2000/svg"
 width="310.000000pt" height="99.000000pt" viewBox="0 0 310.000000 99.000000"
 preserveAspectRatio="xMidYMid meet">

<g transform="translate(0.000000,99.000000) scale(0.100000,-0.100000)"
fill="#000000" stroke="none">
<path d="M141 806 c15 -13 99 -43 99 -35 0 11 -61 39 -86 39 -10 0 -15 -2 -13
-4z"/>
<path d="M700 807 c11 -11 100 -46 100 -39 0 12 -33 29 -70 37 -19 4 -33 5
-30 2z"/>
<path d="M2040 803 c8 -3 32 -14 53 -23 20 -10 37 -14 37 -9 0 12 -63 39 -87
38 -14 0 -15 -2 -3 -6z"/>
<path d="M2480 739 c0 -39 -4 -68 -9 -65 -5 4 -7 -3 -4 -14 12 -46 23 -15 23
65 0 47 -2 85 -5 85 -3 0 -5 -32 -5 -71z"/>
<path d="M313 783 c-16 -6 -18 -268 -3 -278 6 -4 10 42 10 129 l0 136 75 0
c84 0 134 -16 159 -51 9 -13 16 -18 16 -10 0 21 -57 68 -91 75 -36 7 -148 7
-166 -1z"/>
<path d="M873 779 c-16 -16 -18 -245 -3 -254 6 -4 10 38 10 119 l0 126 74 0
c82 0 119 -10 155 -43 l24 -22 -12 23 c-22 41 -58 56 -150 60 -61 3 -90 0 -98
-9z"/>
<path d="M1551 773 c-54 -19 -116 -80 -143 -141 -22 -51 -30 -187 -12 -229 6
-15 9 9 9 80 0 91 3 107 27 152 32 61 59 88 118 114 89 41 179 23 251 -49 36
-36 45 -42 35 -22 -48 91 -175 134 -285 95z"/>
<path d="M2720 779 c-59 -24 -91 -81 -71 -130 9 -22 10 -20 10 17 1 42 20 68
68 93 30 16 107 14 149 -4 19 -8 32 -10 28 -4 -20 33 -130 49 -184 28z"/>
<path d="M2956 768 c-3 -13 -7 -49 -10 -80 -4 -46 -2 -58 10 -58 11 0 14 17
14 80 0 79 -5 101 -14 58z"/>
<path d="M2203 773 c-16 -6 -18 -228 -3 -238 6 -4 10 35 10 109 l0 116 103 0
c67 0 107 -4 115 -12 7 -7 12 -8 12 -2 0 27 -27 34 -125 33 -55 0 -106 -3
-112 -6z"/>
<path d="M644 664 c-2 -139 -67 -202 -216 -211 -139 -7 -128 4 -128 -123 0
-67 4 -110 10 -110 6 0 10 41 10 104 l0 103 94 5 c113 6 171 30 210 87 31 44
44 125 29 180 -8 30 -9 25 -9 -35z"/>
<path d="M1201 662 c-1 -86 -26 -133 -86 -162 -51 -25 -62 -37 -46 -53 8 -8
11 -8 11 1 0 6 15 18 33 26 40 19 59 34 80 66 20 32 31 116 18 155 -8 26 -9
22 -10 -33z"/>
<path d="M1945 507 c0 -100 -3 -118 -26 -167 -46 -99 -100 -146 -211 -185 -56
-19 -81 -19 -152 5 -76 26 -117 52 -162 103 -32 37 -35 39 -21 11 37 -73 135
-131 240 -141 152 -14 274 68 333 222 20 53 25 198 8 242 -6 14 -9 -17 -9 -90z"/>
<path d="M2400 480 c-3 -63 -4 -117 -2 -119 9 -16 12 22 10 120 l-3 114 -5
-115z"/>
<path d="M2590 584 c0 -4 11 -22 25 -40 17 -22 59 -49 121 -80 52 -26 109 -60
125 -75 16 -15 29 -23 29 -18 0 21 -51 59 -148 108 -56 29 -113 66 -127 83
-14 16 -25 26 -25 22z"/>
<path d="M873 463 c-16 -6 -19 -253 -3 -253 6 0 10 47 10 120 l0 120 50 0 c50
0 50 0 75 -50 14 -27 28 -50 30 -50 8 0 -47 104 -59 112 -12 9 -84 9 -103 1z"/>
<path d="M2203 463 c-16 -6 -18 -238 -3 -248 6 -4 10 37 10 115 l0 122 80 -4
c76 -3 99 3 64 16 -18 7 -133 7 -151 -1z"/>
<path d="M2972 340 c-3 -45 -32 -109 -64 -138 -29 -26 -120 -62 -159 -62 -15
0 -60 11 -100 25 -85 28 -104 25 -34 -6 93 -41 212 -36 286 13 47 31 81 104
76 160 -3 39 -4 40 -5 8z"/>
<path d="M1109 203 l31 -63 70 0 c39 0 70 3 70 8 0 4 -30 7 -67 7 l-68 0 -25
47 c-39 71 -47 72 -11 1z"/>
<path d="M275 160 l-130 -6 133 -2 c83 -1 132 2 132 8 0 6 -1 9 -2 8 -2 -1
-61 -5 -133 -8z"/>
<path d="M840 150 l-125 -6 128 -2 c79 -1 127 2 127 8 0 6 -1 9 -2 8 -2 -1
-59 -5 -128 -8z"/>
<path d="M2045 150 c-13 -5 34 -9 128 -9 81 -1 147 3 147 8 0 12 -249 13 -275
1z"/>
</g>
</svg>
